<svg viewBox="0 0 320 160" xmlns="http://www.w3.org/2000/svg" xmlns:xlink="http://www.w3.org/1999/xlink" width="320.000000" height="160.000000" fill="none" customFrame="#000000">
	<rect id="Error" width="320.000000" height="160.000000" x="0.000000" y="0.000000" />
	<path id="Not Found" d="M71.82 27.0125L53.34 20L21 96.4775L21 111.328L68.2781 111.328L68.4375 136.573L89.3925 136.573L89.3925 111.328L101.933 111.328L101.933 94.745L89.3925 94.745L89.3925 65.54L70.995 65.54L68.4225 94.745L43.605 94.745L71.82 27.0125ZM160.526 20Q171.684 20 179.752 24.9941Q185.939 28.8244 190.308 35.5925Q200.373 51.1025 200.373 79.3175Q200.373 107.615 190.308 123.373Q185.896 130.244 179.629 134.103Q171.599 139.048 160.526 139.048Q149.316 139.048 141.227 134.024Q135.027 130.173 130.661 123.373Q120.678 107.615 120.678 79.3175Q120.678 51.1025 130.661 35.5925Q134.984 28.8948 141.104 25.074Q149.231 20 160.526 20ZM269.691 27.0125L251.211 20L218.871 96.4775L218.871 111.328L266.149 111.328L266.309 136.573L287.264 136.573L287.264 111.328L299.804 111.328L299.804 94.745L287.264 94.745L287.264 65.54L268.866 65.54L266.294 94.745L241.476 94.745L269.691 27.0125ZM160.526 36.17Q157.246 36.17 154.528 37.4055Q149.52 39.6819 146.418 46.1525Q141.716 56.0525 141.716 79.3175C141.716 87.8975 142.018 95.02 142.623 100.685C142.797 102.165 143 103.562 143.231 104.877L173.604 42.3405Q172.677 40.9517 171.581 39.965C168.886 37.435 165.201 36.17 160.526 36.17ZM151.616 120.898C150.549 120.278 149.573 119.468 148.685 118.468L178.195 57.95C178.901 63.6303 179.253 70.7529 179.253 79.3175Q179.253 95.1575 177.191 104.81C175.816 111.19 173.726 115.81 170.921 118.67C168.171 121.475 164.706 122.878 160.526 122.878C157.006 122.878 154.036 122.218 151.616 120.898Z" fill="rgb(179,177,173)" fill-rule="evenodd" />
</svg>
